<svg xmlns="http://www.w3.org/2000/svg" width="38" height="38" viewBox="0 0 38 38" fill="none"><metadata><rdf:RDF xmlns:rdf="http://www.w3.org/1999/02/22-rdf-syntax-ns#" xmlns:dc="http://purl.org/dc/elements/1.1/"><rdf:Description><dc:creator>RealFaviconGenerator</dc:creator><dc:source>https://realfavicongenerator.net</dc:source></rdf:Description></rdf:RDF></metadata><defs>
    <linearGradient id="logo-grad" x1="0" y1="0" x2="38" y2="38" gradientUnits="userSpaceOnUse">
      <stop offset="0%" stop-color="#7c5cfc"></stop>
      <stop offset="100%" stop-color="#e040a0"></stop>
    </linearGradient>
  </defs><rect width="38" height="38" rx="10" fill="url(#logo-grad)"></rect><path d="M19 7L9 11v8c0 5.25 4.3 10.15 10 11.35C24.7 29.15 29 24.25 29 19v-8L19 7z" fill="white" fill-opacity="0.15"></path><path d="M19 7L9 11v8c0 5.25 4.3 10.15 10 11.35C24.7 29.15 29 24.25 29 19v-8L19 7z" stroke="white" stroke-width="1.4" stroke-linejoin="round" fill="none"></path><circle cx="19" cy="19" r="2.5" fill="white"></circle><line x1="19" y1="16.5" x2="19" y2="13" stroke="white" stroke-width="1.2" stroke-linecap="round"></line><line x1="21.5" y1="19" x2="25" y2="19" stroke="white" stroke-width="1.2" stroke-linecap="round"></line><line x1="19" y1="21.5" x2="19" y2="25" stroke="white" stroke-width="1.2" stroke-linecap="round"></line><line x1="16.5" y1="19" x2="13" y2="19" stroke="white" stroke-width="1.2" stroke-linecap="round"></line><circle cx="19" cy="13" r="1.2" fill="white" fill-opacity="0.7"></circle><circle cx="25" cy="19" r="1.2" fill="white" fill-opacity="0.7"></circle><circle cx="19" cy="25" r="1.2" fill="white" fill-opacity="0.7"></circle><circle cx="13" cy="19" r="1.2" fill="white" fill-opacity="0.7"></circle></svg>